{
    "asset": {
        "version": "2.0",
        "generator": "Open Asset Import Library (assimp v5.0.5eb040c7)"
    },
    "accessors": [
        {
            "bufferView": 0,
            "byteOffset": 0,
            "componentType": 5126,
            "count": 36,
            "type": "VEC3",
            "max": [
                116.0,
                91.86499786376953,
                126.0
            ],
            "min": [
                -85.0,
                -105.0,
                91.94300079345703
            ]
        },
        {
            "bufferView": 1,
            "byteOffset": 0,
            "componentType": 5125,
            "count": 180,
            "type": "SCALAR",
            "max": [
                35
            ],
            "min": [
                0
            ]
        }
    ],
    "buffers": [
        {
            "byteLength": 1152,
            "uri": "result.bin"
        }
    ],
    "bufferViews": [
        {
            "buffer": 0,
            "byteOffset": 0,
            "byteLength": 432,
            "target": 34962
        },
        {
            "buffer": 0,
            "byteOffset": 432,
            "byteLength": 720,
            "target": 34963
        }
    ],
    "materials": [
        {
            "name": "DefaultMaterial",
            "pbrMetallicRoughness": {
                "baseColorFactor": [
                    0.6000000238418579,
                    0.6000000238418579,
                    0.6000000238418579,
                    1.0
                ],
                "metallicFactor": 0.0
            }
        },
        {
            "name": "color_15277357",
            "pbrMetallicRoughness": {
                "baseColorFactor": [
                    0.6000000238418579,
                    0.6000000238418579,
                    0.6000000238418579,
                    1.0
                ],
                "metallicFactor": 0.0
            }
        }
    ],
    "meshes": [
        {
            "name": "group_0_15277357",
            "primitives": [
                {
                    "mode": 4,
                    "material": 1,
                    "indices": 1,
                    "attributes": {
                        "POSITION": 0
                    }
                }
            ]
        }
    ],
    "nodes": [
        {
            "name": "input.obj",
            "children": [
                1,
                2
            ]
        },
        {
            "name": "obj_0"
        },
        {
            "name": "group_0_15277357",
            "mesh": 0
        }
    ],
    "scenes": [
        {
            "nodes": [
                0
            ]
        }
    ],
    "scene": 0
}